<?xml version="1.0" encoding="utf-8"?>
<svg viewBox="0 0 313.793212890625 65.51740646362305" version="1.1" xmlns="http://www.w3.org/2000/svg" x="0px" y="0px" style="enable-background:new 0 0 1400 980;" width="313.793212890625px" height="65.51741027832031px"><rect x="0" y="0" width="313.793212890625" height="65.51741027832031" style="fill: white; fill-opacity: 0; pointer-events: none;"/><g transform="matrix(2.016654823185239, 0, 0, 2.016654823185239, -28.611751897481895, -34.19259213737522)"><path fill="#0091ab" d="M16.04248046875,34.25048828125q0-2.939453125,0.162353515625-5.810546875t0.401611328125-5.810546875q0.068359375-0.76904296875,0.08544921875-1.48681640625t0.162353515625-1.256103515625t0.5126953125-0.8544921875t1.136474609375-0.316162109375q0.49560546875,0,1.033935546875,0.1708984375t0.538330078125,0.80322265625q0,2.37548828125-0.196533203125,4.674072265625t-0.264892578125,4.571533203125q1.86279296875-2.10205078125,3.98193359375-3.922119140625t4.49462890625-3.597412109375q0.341796875-0.2392578125,0.87158203125-0.25634765625q0.1708984375,0,0.299072265625,0.01708984375t0.264892578125,0.05126953125q0.1708984375,0.068359375,0.350341796875,0.162353515625t0.179443359375,0.264892578125q0,0.13671875-0.15380859375,0.2392578125q-1.77734375,1.435546875-3.511962890625,2.92236328125t-3.306884765625,3.1787109375q0.205078125,0.39306640625,0.350341796875,0.73486328125t0.316162109375,0.73486328125q1.435546875,3.40087890625,2.452392578125,6.964111328125t2.161865234375,7.066650390625q0.1025390625,0.39306640625,0.299072265625,0.811767578125t0.367431640625,0.83740234375t0.299072265625,0.7861328125t0.128173828125,0.606689453125q0,0.3076171875-0.196533203125,0.487060546875t-0.452880859375,0.281982421875t-0.555419921875,0.13671875t-0.555419921875,0.0341796875q-0.59814453125,0-1.068115234375-0.1708984375t-0.743408203125-0.76904296875q-1.2646484375-4.033203125-2.435302734375-8.06640625t-2.366943359375-8.134765625q-0.39306640625,0.39306640625-0.7861328125,0.982666015625t-0.7177734375,1.085205078125q0,2.5634765625,0.11962890625,5.0927734375t0.41015625,5.0927734375q0.068359375,0.73486328125,0.230712890625,1.4697265625t0.162353515625,1.50390625q0,0.56396484375-0.5810546875,0.7861328125t-1.28173828125,0.22216796875q-0.76904296875,0-1.153564453125-0.15380859375t-0.546875-0.401611328125t-0.196533203125-0.546875t-0.1025390625-0.572509765625q-0.39306640625-2.7001953125-0.49560546875-5.340576171875t-0.1025390625-5.306396484375z M33.553930664062,38.21533203125q0-1.572265625,0.367431640625-3.084716796875t0.623779296875-3.016357421875q0.068359375-0.39306640625,0.538330078125-0.487060546875t0.794677734375-0.093994140625q0.56396484375,0,0.90576171875,0.1708984375q0.13671875,0.068359375,0.25634765625,0.15380859375t0.11962890625,0.22216796875q0,1.4697265625-0.350341796875,2.87109375t-0.350341796875,2.9736328125q0,0.52978515625,0.076904296875,0.999755859375t0.145263671875,0.931396484375l0.1025390625,0.49560546875q0,0.13671875,0.01708984375,0.2392578125t0.05126953125,0.2392578125q0,0.3076171875-0.435791015625,0.418701171875t-0.760498046875,0.111083984375q-0.49560546875,0-0.914306640625-0.196533203125t-0.657958984375-0.675048828125l-0.2392578125-0.49560546875q-0.205078125-0.39306640625-0.205078125-0.880126953125t-0.08544921875-0.897216796875z M34.647680664062,27.92724609375l0-0.32470703125q0-0.80322265625,0.401611328125-1.435546875t1.204833984375-0.63232421875q0.1025390625,0,0.196533203125,0.01708984375t0.196533203125,0.01708984375q0.205078125,0.0341796875,0.538330078125,0.162353515625t0.333251953125,0.401611328125l0,0.0341796875q-0.068359375,0.13671875-0.08544921875,0.281982421875t-0.08544921875,0.247802734375l0.0341796875-0.0341796875q-0.205078125,0.52978515625-0.333251953125,0.8544921875t-0.281982421875,0.521240234375t-0.384521484375,0.281982421875t-0.657958984375,0.08544921875q-0.068359375,0-0.2392578125-0.01708984375t-0.367431640625-0.068359375t-0.333251953125-0.13671875t-0.13671875-0.25634765625z M41.016552734375,33.84033203125q0-0.70068359375,0.247802734375-1.17919921875t1.051025390625-0.478515625q0.3076171875,0,0.76904296875,0.093994140625t0.52978515625,0.469970703125q0.1708984375,1.00830078125,0.18798828125,2.1875t0.11962890625,2.2216796875q0.39306640625-0.76904296875,1.00830078125-1.65771484375t1.4013671875-1.640625t1.708984375-1.24755859375t1.8798828125-0.49560546875q0.068359375,0,0.25634765625,0.05126953125t0.350341796875,0.145263671875t0.196533203125,0.213623046875t-0.18798828125,0.22216796875q-0.068359375,0.205078125-0.29052734375,0.247802734375t-0.39306640625,0.042724609375q-0.1025390625,0-0.32470703125-0.08544921875q-1.2646484375,0.66650390625-2.1533203125,1.8115234375t-1.45263671875,2.537841796875t-0.8203125,2.939453125t-0.25634765625,3.016357421875q0,0.73486328125-0.333251953125,0.888671875t-1.068115234375,0.15380859375q-0.39306640625,0-0.828857421875-0.08544921875t-0.606689453125-0.546875q-0.3076171875-0.97412109375-0.504150390625-2.23876953125t-0.299072265625-2.606201171875t-0.145263671875-2.640380859375t-0.042724609375-2.34130859375z M53.161791992187,38.62548828125q0-1.162109375,0.316162109375-2.23876953125t0.948486328125-1.922607421875t1.580810546875-1.35009765625t2.196044921875-0.504150390625q0.76904296875,0,1.700439453125,0.230712890625t1.751708984375,0.68359375t1.3671875,1.153564453125t0.546875,1.6064453125q0,0.42724609375-0.145263671875,0.6494140625t-0.589599609375,0.22216796875l-0.18798828125-0.0341796875q0.49560546875,1.3330078125,0.8544921875,2.734375t0.70068359375,2.802734375q0.13671875,0.2734375,0.205078125,0.487060546875t0.068359375,0.418701171875q0,0.2734375-0.15380859375,0.452880859375t-0.401611328125,0.264892578125t-0.5126953125,0.11962890625t-0.469970703125,0.0341796875q-0.73486328125,0-1.102294921875-0.25634765625t-0.52978515625-0.70068359375t-0.196533203125-0.999755859375t-0.13671875-1.119384765625q-0.205078125,0.66650390625-0.538330078125,1.298828125t-0.7861328125,1.136474609375t-1.068115234375,0.80322265625t-1.38427734375,0.299072265625q-1.1279296875,0-1.89697265625-0.6494140625t-1.239013671875-1.597900390625t-0.68359375-2.025146484375t-0.213623046875-1.99951171875z M55.588549804687,38.38623046875q0,0.63232421875,0.08544921875,1.3330078125t0.281982421875,1.38427734375t0.504150390625,1.290283203125t0.76904296875,1.068115234375q0.83740234375-0.90576171875,1.239013671875-2.20458984375t0.7177734375-2.503662109375t0.7177734375-2.06787109375t1.239013671875-0.863037109375q0.52978515625,0,0.888671875,0.18798828125q-0.1708984375-0.42724609375-0.56396484375-0.828857421875t-0.880126953125-0.73486328125t-1.00830078125-0.546875t-0.982666015625-0.213623046875q-0.13671875,0-0.316162109375,0.042724609375t-0.281982421875,0.008544921875q-0.70068359375,0.205078125-1.153564453125,0.709228515625t-0.73486328125,1.187744140625t-0.401611328125,1.4013671875t-0.11962890625,1.35009765625z M74.666625976562,42.2314453125q-0.01708984375-0.5126953125-0.01708984375-1.025390625q0-1.6064453125,0.1708984375-3.22998046875q0.205078125-2.1533203125,0.2734375-4.23828125q0.068359375-2.44384765625,0.205078125-5.07568359375q0.08544921875-1.435546875,0.08544921875-2.8369140625q0-1.14501953125-0.05126953125-2.27294921875q0.1708984375-0.39306640625,0.452880859375-0.52978515625t0.709228515625-0.13671875q0.205078125,0,0.435791015625,0.0341796875t0.401611328125,0.1708984375q0.2392578125,0.0341796875,0.589599609375,0.068359375t0.538330078125,0.205078125q0.068359375,0.1025390625,0.350341796875,0.70068359375t0.66650390625,1.45263671875t0.80322265625,1.854248046875t0.80322265625,1.89697265625t0.66650390625,1.580810546875t0.350341796875,0.8544921875q1.6064453125-2.9052734375,3.14453125-5.972900390625t3.36669921875-5.784912109375q0.1708984375-0.2392578125,0.589599609375-0.350341796875t0.692138671875-0.111083984375q0.73486328125,0,1.068115234375,0.350341796875t0.435791015625,0.897216796875q0.068359375,0.341796875,0.08544921875,0.73486328125q0.01708984375,0.205078125-0.01708984375,0.42724609375q-0.068359375,0.63232421875-0.068359375,1.1962890625q0,3.98193359375-0.2734375,7.904052734375t-0.49560546875,7.921142578125q-0.0341796875,0.8203125-0.0341796875,1.708984375t0.0341796875,1.845703125q0.01708984375,0.341796875,0.01708984375,0.66650390625q0,1.50390625-0.25634765625,2.802734375q-0.2392578125,0.39306640625-0.7861328125,0.49560546875t-0.9228515625,0.1025390625q-0.80322265625,0-1.5380859375-0.3759765625l-0.18798828125-0.22216796875l-0.068359375-0.2734375t-0.0341796875-0.2734375q0-2.47802734375,0.179443359375-4.990234375t0.401611328125-5.015869140625t0.469970703125-4.998779296875t0.418701171875-4.990234375q-1.00830078125,1.6748046875-1.956787109375,3.409423828125t-1.785888671875,3.529052734375q-0.3076171875,0.70068359375-0.589599609375,1.50390625t-0.675048828125,1.435546875q-0.205078125,0.3076171875-0.692138671875,0.3759765625t-0.845947265625,0.068359375q-0.341796875,0-0.709228515625-0.11962890625t-0.504150390625-0.5126953125q-0.63232421875-1.93115234375-1.35009765625-3.77685546875t-1.45263671875-3.74267578125q0,1.2646484375,0.05126953125,3.272705078125t0.05126953125,4.161376953125t-0.068359375,4.11865234375t-0.32470703125,3.1103515625q-0.068359375,0.42724609375-0.555419921875,0.52978515625t-0.845947265625,0.1025390625q-0.2734375,0-0.521240234375-0.0341796875t-0.487060546875-0.13671875z M94.963720703125,38.28369140625q0-1.23046875,0.316162109375-2.469482421875t0.982666015625-2.2216796875t1.700439453125-1.597900390625t2.435302734375-0.615234375q0.59814453125,0,1.31591796875,0.145263671875t1.324462890625,0.46142578125t1.025390625,0.8203125t0.418701171875,1.239013671875q0,0.46142578125-0.2392578125,0.615234375t-0.63232421875,0.15380859375l-0.11962890625-0.1708984375t-0.333251953125-0.435791015625t-0.452880859375-0.56396484375t-0.46142578125-0.504150390625q-0.70068359375-0.70068359375-1.31591796875-0.751953125l-0.13671875,0q-0.5126953125,0-0.95703125,0.3076171875q-0.49560546875,0.3759765625-0.880126953125,1.0595703125t-0.640869140625,1.45263671875t-0.401611328125,1.55517578125t-0.145263671875,1.298828125q0,0.70068359375,0.162353515625,1.597900390625t0.546875,1.700439453125t0.97412109375,1.35009765625t1.512451171875,0.546875q0.83740234375,0,1.52099609375-0.41015625t1.307373046875-0.914306640625t1.221923828125-0.90576171875t1.23046875-0.401611328125q0.2734375,0,0.555419921875,0.068359375t0.281982421875,0.35888671875l0,0.1025390625q-0.3076171875,0.80322265625-1.04248046875,1.41845703125t-1.649169921875,1.068115234375t-1.89697265625,0.675048828125t-1.751708984375,0.22216796875q-1.435546875,0-2.520751953125-0.469970703125t-1.802978515625-1.290283203125t-1.085205078125-1.973876953125t-0.367431640625-2.520751953125z M109.91169433594,36.2158203125l0-2.7001953125q0-2.802734375,0.093994140625-5.562744140625t0.162353515625-5.562744140625q0-0.52978515625-0.0341796875-1.17919921875q-0.01708984375-0.18798828125-0.01708984375-0.35888671875q0-0.42724609375,0.068359375-0.83740234375q0.08544921875-0.546875,0.418701171875-0.93994140625t1.102294921875-0.39306640625q0.63232421875,0,0.965576171875,0.13671875t0.469970703125,0.401611328125t0.15380859375,0.66650390625t0.01708984375,0.931396484375q0,2.8369140625-0.068359375,5.69091796875q-0.05126953125,1.89697265625-0.05126953125,3.7939453125q0,0.95703125,0.01708984375,1.9140625q0.0341796875,2.8369140625,0.264892578125,5.673828125t0.777587890625,5.60546875q1.708984375-0.068359375,3.41796875-0.1708984375t3.41796875-0.1025390625q0.1708984375,0,0.487060546875,0.0341796875t0.63232421875,0.11962890625t0.538330078125,0.22216796875t0.22216796875,0.39306640625q0,0.1708984375-0.15380859375,0.29052734375t-0.29052734375,0.18798828125l-0.0341796875,0q-0.2734375,0.13671875-1.085205078125,0.264892578125t-1.845703125,0.196533203125t-2.17041015625,0.11962890625t-2.13623046875,0.08544921875t-1.734619140625,0.05126953125t-0.90576171875,0.01708984375l-0.15380859375,0q-0.41015625,0-0.9228515625-0.13671875q-0.615234375-0.1708984375-0.76904296875-0.66650390625q-0.3076171875-1.2646484375-0.487060546875-2.623291015625t-0.2734375-2.760009765625t-0.093994140625-2.802734375z M125.4236328125,39.326171875q0-1.1962890625,0.264892578125-2.81982421875t0.897216796875-3.076171875t1.666259765625-2.469482421875t2.606201171875-1.016845703125q1.4697265625,0,2.20458984375,0.845947265625t0.73486328125,2.281494140625q0,0.93994140625-0.350341796875,2.059326171875t-0.999755859375,2.119140625t-1.5380859375,1.666259765625t-1.982421875,0.66650390625l-0.4443359375-0.0341796875q0,0.46142578125,0.13671875,1.239013671875t0.401611328125,1.546630859375t0.68359375,1.35009765625t1.016845703125,0.5810546875q0.87158203125,0,1.6748046875-0.70068359375t1.52099609375-1.55517578125t1.3330078125-1.55517578125t1.1279296875-0.70068359375q0.2734375,0,0.56396484375,0.08544921875t0.32470703125,0.478515625q0,0.2392578125-0.128173828125,0.39306640625t-0.230712890625,0.341796875q-0.52978515625,0.90576171875-1.153564453125,1.72607421875t-1.409912109375,1.48681640625t-1.717529296875,1.051025390625t-2.059326171875,0.384521484375q-1.4697265625,0-2.44384765625-0.521240234375t-1.572265625-1.4013671875t-0.863037109375-2.03369140625t-0.264892578125-2.418212890625z M128.48271484375,38.02734375l0.478515625,0.42724609375q0.341796875,0.3076171875,0.68359375,0.13671875t0.615234375-0.623779296875t0.504150390625-1.119384765625t0.41015625-1.3671875t0.264892578125-1.3671875t0.08544921875-1.11083984375l0-0.5810546875t-0.05126953125-0.615234375t-0.179443359375-0.487060546875t-0.401611328125-0.247802734375q-0.08544921875-0.01708984375-0.15380859375-0.01708984375q-0.5810546875,0-0.9912109375,0.73486328125q-0.4443359375,0.8203125-0.7177734375,1.990966796875t-0.39306640625,2.401123046875t-0.15380859375,1.845703125z M139.70510253906,38.62548828125q0-1.162109375,0.316162109375-2.23876953125t0.948486328125-1.922607421875t1.580810546875-1.35009765625t2.196044921875-0.504150390625q0.76904296875,0,1.700439453125,0.230712890625t1.751708984375,0.68359375t1.3671875,1.153564453125t0.546875,1.6064453125q0,0.42724609375-0.145263671875,0.6494140625t-0.589599609375,0.22216796875l-0.18798828125-0.0341796875q0.49560546875,1.3330078125,0.8544921875,2.734375t0.70068359375,2.802734375q0.13671875,0.2734375,0.205078125,0.487060546875t0.068359375,0.418701171875q0,0.2734375-0.15380859375,0.452880859375t-0.401611328125,0.264892578125t-0.5126953125,0.11962890625t-0.469970703125,0.0341796875q-0.73486328125,0-1.102294921875-0.25634765625t-0.52978515625-0.70068359375t-0.196533203125-0.999755859375t-0.13671875-1.119384765625q-0.205078125,0.66650390625-0.538330078125,1.298828125t-0.7861328125,1.136474609375t-1.068115234375,0.80322265625t-1.38427734375,0.299072265625q-1.1279296875,0-1.89697265625-0.6494140625t-1.239013671875-1.597900390625t-0.68359375-2.025146484375t-0.213623046875-1.99951171875z M142.13186035156,38.38623046875q0,0.63232421875,0.08544921875,1.3330078125t0.281982421875,1.38427734375t0.504150390625,1.290283203125t0.76904296875,1.068115234375q0.83740234375-0.90576171875,1.239013671875-2.20458984375t0.7177734375-2.503662109375t0.7177734375-2.06787109375t1.239013671875-0.863037109375q0.52978515625,0,0.888671875,0.18798828125q-0.1708984375-0.42724609375-0.56396484375-0.828857421875t-0.880126953125-0.73486328125t-1.00830078125-0.546875t-0.982666015625-0.213623046875q-0.13671875,0-0.316162109375,0.042724609375t-0.281982421875,0.008544921875q-0.70068359375,0.205078125-1.153564453125,0.709228515625t-0.73486328125,1.187744140625t-0.401611328125,1.4013671875t-0.11962890625,1.35009765625z M154.53344726562,38.7109375l0-0.49560546875q0-0.615234375,0.0341796875-1.162109375q0.0341796875-0.76904296875,0.0341796875-1.2646484375q0-0.2734375,0.0341796875-0.623779296875t0.1708984375-0.555419921875q0.1708984375-0.1708984375,0.401611328125-0.350341796875t0.504150390625-0.179443359375q0.87158203125,0,1.3671875,0.196533203125t0.52978515625,0.811767578125l0.068359375,0.52978515625q0.3076171875-0.73486328125,0.8203125-1.820068359375t1.187744140625-2.06787109375t1.52099609375-1.6748046875t1.785888671875-0.692138671875q0.87158203125,0,1.435546875,0.8203125t0.897216796875,2.093505859375t0.469970703125,2.8369140625t0.18798828125,3.067626953125t0.068359375,2.742919921875t0.11962890625,1.871337890625q0.068359375,0.52978515625,0.230712890625,1.119384765625t0.162353515625,1.085205078125q0,0.13671875-0.196533203125,0.264892578125t-0.418701171875,0.213623046875t-0.452880859375,0.13671875t-0.333251953125,0.05126953125q-0.66650390625,0-0.948486328125-0.999755859375t-0.350341796875-2.503662109375t-0.068359375-3.255615234375t-0.11962890625-3.255615234375t-0.487060546875-2.503662109375t-1.170654296875-1.033935546875q-0.73486328125,0-1.52099609375,0.948486328125t-1.35009765625,2.520751953125q-0.546875,1.572265625-0.751953125,3.57177734375q-0.068359375,0.63232421875-0.068359375,1.2646484375q0,1.38427734375,0.29052734375,2.7685546875q0.0341796875,0.2392578125-0.196533203125,0.35888671875t-0.572509765625,0.18798828125t-0.692138671875,0.08544921875t-0.538330078125,0.01708984375q-0.66650390625,0-1.068115234375-0.469970703125t-0.623779296875-1.204833984375t-0.299072265625-1.649169921875t-0.093994140625-1.802978515625z"/></g></svg>
